<?xml version="1.0" standalone="no"?>
<!DOCTYPE svg PUBLIC "-//W3C//DTD SVG 20010904//EN"
 "http://www.w3.org/TR/2001/REC-SVG-20010904/DTD/svg10.dtd">
<svg version="1.0" xmlns="http://www.w3.org/2000/svg"
 width="300.000000pt" height="261.000000pt" viewBox="0 0 300.000000 261.000000"
 preserveAspectRatio="xMidYMid meet">

<g transform="translate(0.000000,261.000000) scale(0.100000,-0.100000)"
fill="#000000" stroke="none">
<path d="M329 2600 c-64 -19 -118 -83 -134 -157 -6 -28 -13 -34 -48 -44 -56
-15 -121 -81 -137 -138 -44 -163 127 -307 275 -231 l38 20 41 -35 c23 -18 99
-90 171 -159 l130 -125 -173 0 c-220 -1 -242 -10 -242 -97 0 -24 8 -43 25 -59
24 -25 26 -25 204 -25 l179 0 17 -77 c37 -167 109 -295 242 -434 46 -47 83
-89 83 -92 0 -3 -92 -91 -205 -195 l-206 -191 -36 22 c-82 48 -200 20 -257
-61 -79 -112 -22 -269 110 -304 37 -10 44 -16 44 -37 0 -43 40 -111 81 -138
85 -56 183 -48 254 21 65 63 80 148 40 227 -15 28 -23 18 97 128 l36 33 17
-58 c71 -243 241 -364 515 -366 182 -1 312 44 411 142 60 59 113 157 125 228
4 23 10 42 14 42 4 0 38 -28 75 -63 l66 -62 -17 -35 c-22 -43 -23 -124 -1
-166 22 -42 77 -89 122 -104 40 -13 114 -6 155 15 50 26 100 101 100 150 0 26
4 29 51 39 41 9 92 49 116 91 30 53 31 140 3 195 -44 87 -176 127 -264 81 -47
-25 -22 -43 -269 189 l-187 175 33 24 c146 110 286 334 319 511 6 30 12 61 14
68 3 9 50 12 193 12 l190 0 20 26 c37 47 21 115 -32 134 -16 5 -106 10 -199
10 -136 0 -169 3 -166 13 2 8 72 78 156 156 l152 143 52 -22 c129 -55 260 23
275 163 10 97 -47 179 -144 208 -33 9 -43 17 -43 33 -1 33 -34 98 -66 128 -38
35 -74 48 -135 48 -148 0 -243 -157 -175 -289 14 -26 12 -28 -89 -124 -57 -53
-107 -97 -112 -97 -4 0 -28 25 -52 56 -100 129 -293 255 -456 299 -156 42
-397 27 -553 -36 -138 -55 -294 -177 -367 -288 l-27 -40 -113 105 -112 105 18
37 c36 69 16 176 -42 229 -50 46 -132 64 -200 43z m143 -57 c74 -44 95 -150
44 -218 l-28 -36 93 -88 c52 -48 112 -103 133 -122 l39 -36 -35 -84 c-20 -46
-39 -101 -43 -122 -8 -47 12 -60 -193 133 -78 74 -148 137 -153 139 -6 2 -21
-7 -34 -19 -47 -44 -144 -42 -193 3 -106 98 -41 267 103 267 l40 0 -3 43 c-6
87 60 157 150 157 30 0 62 -7 80 -17z m2204 -2 c55 -25 84 -73 84 -140 l0 -51
40 0 c47 0 85 -17 120 -54 19 -21 25 -40 28 -89 4 -57 1 -66 -23 -95 -63 -75
-160 -84 -230 -22 -20 18 -23 15 -180 -131 -88 -81 -162 -149 -165 -149 -3 0
-12 21 -18 48 -7 26 -27 78 -44 116 l-32 68 55 52 c29 28 87 81 127 118 l74
67 -23 32 c-31 44 -36 122 -11 169 20 38 89 80 132 80 14 0 43 -9 66 -19z
m-966 -143 c134 -33 275 -113 362 -205 41 -43 148 -191 148 -204 0 -5 -301 -9
-715 -9 -393 0 -715 3 -715 6 0 4 16 33 36 66 74 122 216 249 337 303 164 72
368 88 547 43z m1008 -720 c7 -7 12 -24 12 -38 0 -14 -5 -31 -12 -38 -17 -17
-2389 -17 -2406 0 -17 17 -15 54 4 72 14 14 137 16 1203 16 910 0 1190 -3
1199 -12z m-418 -150 c0 -42 -67 -216 -110 -290 -25 -42 -78 -107 -126 -155
-67 -66 -100 -90 -176 -127 -142 -70 -195 -81 -388 -81 -191 0 -246 11 -380
77 -69 33 -102 58 -176 132 -73 73 -99 108 -136 181 -43 86 -79 183 -93 253
l-7 32 796 0 796 0 0 -22z m-1150 -643 c33 -14 66 -25 74 -25 24 0 27 -15 14
-89 -11 -65 -14 -70 -33 -65 -46 15 -156 76 -162 90 -5 13 34 114 44 114 2 0
30 -11 63 -25z m788 -46 c12 -34 20 -65 17 -69 -5 -8 -128 -61 -171 -74 -19
-6 -22 -1 -33 50 -18 91 -16 101 21 109 17 4 50 16 72 26 64 28 70 25 94 -42z
m313 -202 l156 -147 23 25 c51 55 145 56 206 3 107 -94 36 -268 -110 -268 -34
0 -35 -1 -29 -34 8 -50 -27 -117 -76 -144 -78 -44 -169 -19 -208 58 -29 57
-29 94 2 148 l25 44 -99 94 -98 93 -7 83 c-8 91 -30 202 -52 254 -25 60 -15
59 49 -2 34 -33 132 -126 218 -207z m-1245 212 c-22 -52 -46 -193 -46 -265 l0
-64 -72 -68 c-40 -38 -88 -82 -107 -99 l-34 -30 23 -30 c54 -73 28 -183 -52
-224 -106 -54 -223 21 -220 142 l1 49 -46 0 c-128 0 -196 148 -112 245 16 18
43 38 59 45 45 18 113 7 156 -25 l36 -27 46 44 c123 119 375 348 378 345 3 -2
-2 -19 -10 -38z m414 -28 l65 -6 3 -74 c2 -41 -1 -78 -6 -83 -6 -6 -40 -5 -88
2 -136 20 -127 14 -120 78 12 99 14 104 50 96 17 -4 60 -10 96 -13z m288 -63
c6 -40 8 -76 4 -80 -12 -12 -174 -30 -184 -20 -5 5 -8 42 -6 83 l3 74 55 6
c30 3 69 6 86 7 l32 2 10 -72z m-500 -99 c9 -3 9 -20 0 -72 -13 -81 -11 -80
-125 -15 l-75 43 6 58 c3 32 8 62 11 66 2 4 42 -11 87 -34 46 -23 89 -44 96
-46z m775 -11 l2 -52 -95 -48 c-69 -36 -96 -45 -101 -36 -4 7 -10 41 -14 76
-6 57 -5 64 12 68 10 3 54 20 98 37 92 37 94 36 98 -45z m-608 -24 c28 -3 65
-7 83 -10 l33 -5 -3 -77 -3 -77 -53 3 c-29 2 -83 11 -120 20 l-67 17 2 50 c5
89 9 98 46 91 18 -4 55 -9 82 -12z m361 -59 l10 -75 -36 -10 c-52 -15 -170
-31 -181 -24 -5 3 -9 38 -9 79 0 81 2 84 73 86 23 1 56 5 72 9 61 16 61 16 71
-65z m-599 -70 c249 -115 514 -111 771 10 105 50 100 54 81 -65 -30 -189 -159
-324 -346 -360 -80 -16 -270 -8 -340 14 -76 24 -172 92 -214 153 -43 62 -76
161 -85 257 l-7 69 44 -27 c24 -15 67 -38 96 -51z"/>
<path d="M1073 2205 c-32 -22 -113 -134 -113 -156 0 -26 36 -25 50 1 6 11 33
47 61 80 29 36 48 67 45 76 -7 18 -16 18 -43 -1z"/>
<path d="M1933 2174 c-3 -9 4 -27 16 -42 11 -15 35 -53 51 -85 17 -32 36 -57
43 -54 34 11 5 102 -52 165 -33 35 -49 40 -58 16z"/>
<path d="M1147 2128 c-36 -48 -59 -98 -53 -114 9 -24 35 -15 52 19 9 17 27 47
41 65 25 34 25 62 -1 62 -8 0 -26 -15 -39 -32z"/>
<path d="M1807 2118 c-3 -11 10 -51 33 -98 15 -30 35 -17 34 22 -2 59 -52 117
-67 76z"/>
<path d="M1251 2091 c-25 -34 -27 -57 -6 -65 19 -7 69 58 61 79 -9 24 -33 18
-55 -14z"/>
<path d="M1095 1486 c-44 -19 -102 -89 -115 -138 -37 -134 72 -278 210 -278
148 0 259 157 204 288 -19 46 -68 98 -116 123 -44 22 -137 25 -183 5z"/>
<path d="M1735 1481 c-141 -65 -169 -255 -52 -358 108 -94 278 -58 338 72 22
47 25 132 5 178 -44 104 -186 157 -291 108z"/>
<path d="M1458 1065 c-87 -49 6 -150 95 -104 28 15 37 28 37 55 0 48 -81 78
-132 49z"/>
</g>
</svg>
